HIERARCHY
ROOT Hips
{
  OFFSET 40.9192 92.6879 18.85
  CHANNELS 6 Xposition Yposition Zposition Zrotation Xrotation Yrotation
  JOINT LeftUpLeg
  {
    OFFSET 8.64259 1.95398 -2.38835
    CHANNELS 3 Zrotation Xrotation Yrotation
    JOINT LeftLeg
    {
      OFFSET 43.7702 0 0
      CHANNELS 3 Zrotation Xrotation Yrotation
      JOINT LeftFoot
      {
        OFFSET 40.6238 0 0
        CHANNELS 3 Zrotation Xrotation Yrotation
        JOINT LeftToeBase
        {
          OFFSET 12.7242 0 0
          CHANNELS 3 Zrotation Xrotation Yrotation
          End Site
          {
            OFFSET 0 0 0
          }
        }
      }
    }
  }
  JOINT RightUpLeg
  {
    OFFSET -8.2249 1.95398 -2.59336
    CHANNELS 3 Zrotation Xrotation Yrotation
    JOINT RightLeg
    {
      OFFSET 43.5653 0 0
      CHANNELS 3 Zrotation Xrotation Yrotation
      JOINT RightFoot
      {
        OFFSET 40.6238 0 0
        CHANNELS 3 Zrotation Xrotation Yrotation
        JOINT RightToeBase
        {
          OFFSET 12.7242 0 0
          CHANNELS 3 Zrotation Xrotation Yrotation
          End Site
          {
            OFFSET 0 0 0
          }
        }
      }
    }
  }
  JOINT Spine
  {
    OFFSET 0.165834 0.87714 6.61349
    CHANNELS 3 Zrotation Xrotation Yrotation
    JOINT Spine1
    {
      OFFSET 7.38963 1.71661e-005 0
      CHANNELS 3 Zrotation Xrotation Yrotation
      JOINT Spine2
      {
        OFFSET 11.9445 1.14441e-005 0
        CHANNELS 3 Zrotation Xrotation Yrotation
        JOINT Spine3
        {
          OFFSET 14.7254 4.19617e-005 0
          CHANNELS 3 Zrotation Xrotation Yrotation
          JOINT Spine4
          {
            OFFSET 10.9679 0 0
            CHANNELS 3 Zrotation Xrotation Yrotation
            JOINT RightShoulder
            {
              OFFSET 2.46616 -1.6653 3.69651
              CHANNELS 3 Zrotation Xrotation Yrotation
              JOINT RightArm
              {
                OFFSET 13.0012 0 0
                CHANNELS 3 Zrotation Xrotation Yrotation
                JOINT RightForeArm
                {
                  OFFSET 28.7848 1.52588e-005 0
                  CHANNELS 3 Zrotation Xrotation Yrotation
                  JOINT RightHand
                  {
                    OFFSET 26.5688 1.52588e-005 0
                    CHANNELS 3 Zrotation Xrotation Yrotation
                    End Site
                    {
                      OFFSET 0 0 0
                    }
                  }
                }
              }
            }
            JOINT LeftShoulder
            {
              OFFSET 2.38034 -1.29275 -3.7523
              CHANNELS 3 Zrotation Xrotation Yrotation
              JOINT LeftArm
              {
                OFFSET 16.3182 6.10351e-005 0
                CHANNELS 3 Zrotation Xrotation Yrotation
                JOINT LeftForeArm
                {
                  OFFSET 27.0901 0 0
                  CHANNELS 3 Zrotation Xrotation Yrotation
                  JOINT LeftHand
                  {
                    OFFSET 24.5451 1.52588e-005 0
                    CHANNELS 3 Zrotation Xrotation Yrotation
                    End Site
                    {
                      OFFSET 0 0 0
                    }
                  }
                }
              }
            }
            JOINT Neck
            {
              OFFSET 5.0226 -0.0266342 0
              CHANNELS 3 Zrotation Xrotation Yrotation
              JOINT Head
              {
                OFFSET 6.69363 2.86102e-005 0
                CHANNELS 3 Zrotation Xrotation Yrotation
                End Site
                {
                  OFFSET 0 0 0
                }
              }
            }
          }
        }
      }
    }
  }
}
MOTION
Frames:	10
Frame Time:	0.0416667
-46.926 97.3874 39.1637 -106.889 -82.3336 -105.994 -169.578 2.31619 93.8438 -10.2748 5.11902 -2.71469 62.789 1.64816 1.73209 29.1361 0.324562 -0.456017 173.221 2.06208 88.7627 -10.6046 -9.19816 -0.792166 62.2052 -1.76869 -0.955406 31.1583 0.352971 -5.37108 0.176628 7.06719 -90.1003 12.7398 0.302888 -0.236398 1.06888 0.292191 -0.249515 -21.4665 0.359932 -0.134442 -1.45383 0.359934 -0.134446 92.7509 -46.5221 -97.2536 30.0441 -10.0073 -0.0141322 -3.43701 -25.7786 -39.7877 -5.41284 -0.818466 5.18588 -95.6611 -48.9833 70.0204 -22.6952 18.2011 -1.77722 0.59389 12.0914 -30.2539 10.159 1.35307 8.72154 12.5773 4.19922 0.234365 -6.91626 4.0062 3.16973 
-46.9493 97.4038 39.1953 -108.957 -82.7697 -108.411 -169.689 1.98265 93.5407 -9.8752 5.02434 -2.74251 62.5665 1.62056 1.60396 29.0759 0.315762 -0.856325 172.844 1.9908 88.3397 -10.7426 -8.76621 -0.624908 62.4492 -1.8404 -0.997443 31.4289 0.345764 -5.19103 0.109147 7.08327 -90.0617 12.7075 0.187408 -0.145183 1.03657 0.180839 -0.1533 -21.4987 0.222367 -0.082154 -1.48602 0.222379 -0.0821455 92.7445 -46.491 -97.2697 30.1214 -9.95851 0.0213664 -3.56808 -26.0134 -39.8076 -5.95168 -0.893324 5.79687 -95.7666 -49.0547 69.8862 -22.6444 18.0963 -1.62558 0.608674 11.8203 -30.4616 9.90732 1.36704 9.25563 11.6696 3.03304 1.82684 -6.06608 2.57384 1.05201 
-46.9074 97.3514 39.2407 -111.842 -82.8893 -111.536 -169.751 1.75405 93.3198 -10.1233 4.87131 -2.7816 62.82 1.73803 1.62623 28.9084 0.224566 -1.25819 172.471 1.45771 88.0011 -10.3849 -8.39735 -0.436341 62.9464 -2.04726 -1.12851 30.9092 0.31172 -4.48001 0.0755959 7.12123 -90.0291 12.6315 0.136328 -0.0741081 0.960552 0.13293 -0.0800447 -21.5747 0.152291 -0.02971 -1.56202 0.152294 -0.0297131 92.7547 -46.3962 -97.2719 30.2787 -9.87478 0.0457644 -3.73996 -26.2692 -39.9377 -5.78743 -0.92693 6.50385 -95.7183 -48.9661 69.9304 -22.7086 18.2289 -1.6169 0.860781 13.2278 -29.5279 11.7163 1.05378 4.82324 12.2338 2.47278 1.03679 -6.0875 2.17699 1.79953 
-46.9339 97.2762 39.2766 -111.372 -82.8966 -111.095 -169.792 1.98767 93.2542 -10.5845 4.74944 -2.74331 63.2588 1.90493 1.61144 28.7097 0.0795649 -1.34423 172.43 0.951709 87.9564 -9.44135 -8.81774 -0.438734 63.3415 -2.34065 -1.32455 30.4786 0.330875 -4.964 0.0762824 7.11448 -90.0269 12.6443 0.13867 -0.0700708 0.973321 0.135451 -0.0761144 -21.5619 0.153314 -0.0251496 -1.54924 0.153318 -0.0251565 92.7446 -46.4482 -97.2782 30.2121 -9.83002 0.0397954 -3.87059 -26.2622 -39.8521 -5.48458 -0.889089 6.22763 -95.8069 -49.0402 69.8216 -22.6352 18.1849 -1.54703 0.85207 13.1834 -29.5065 11.4908 1.05626 5.04208 12.2838 2.46622 1.09623 -6.39378 2.15256 1.82153 
-46.9118 97.1692 39.1969 -110.881 -82.8348 -110.511 -169.829 2.46498 93.2997 -11.414 4.79555 -2.69095 63.7517 1.98806 1.72611 28.6077 -0.00454681 -1.2918 172.471 0.214109 88.0475 -7.97159 -9.21095 -0.43764 63.5865 -2.63297 -1.53066 29.9395 0.349345 -5.37194 0.0862035 7.1219 -90.0379 12.6494 0.153182 -0.0935315 0.978466 0.148925 -0.100193 -21.5567 0.174213 -0.0431643 -1.54411 0.174209 -0.0431764 92.7336 -46.4995 -97.2859 30.1701 -9.85786 0.195384 -3.51898 -26.3117 -40.046 -5.93155 -0.926105 6.33981 -95.8523 -49.0414 69.7547 -22.6924 18.1233 -1.4982 0.922831 13.3168 -29.515 11.6704 1.08658 5.16541 12.1115 2.34988 1.15602 -6.16564 2.03175 1.76678 
-46.9782 97.072 39.3028 -111.06 -82.791 -110.84 -169.788 2.6304 93.2647 -12.0023 4.64655 -2.77457 63.9445 1.83885 1.45512 28.8835 0.199189 -1.1959 172.393 -0.251205 87.9176 -7.4336 -9.75247 -0.502594 64.3564 -3.01923 -1.76687 29.4699 0.375032 -5.83768 0.0872618 7.11978 -90.0263 12.6454 0.160811 -0.0713929 0.97441 0.157514 -0.0784106 -21.5608 0.174831 -0.0197666 -1.54818 0.174834 -0.019765 92.7478 -46.451 -97.2722 30.115 -9.85802 0.134807 -3.58986 -26.4375 -39.9633 -5.78006 -0.908043 6.19178 -96.054 -49.2142 69.5104 -22.542 18.1119 -1.34166 0.890484 13.1895 -29.5638 11.6733 1.08905 5.18313 12.1375 2.45037 1.17214 -6.39237 2.12219 1.81725 
-46.951 96.9563 39.2861 -111.121 -82.8428 -110.826 -169.785 3.26296 93.3558 -13.086 4.97541 -2.7964 64.2109 1.76764 1.89541 29.1657 0.474691 -1.79797 172.337 -0.261327 87.9263 -7.58011 -10.0207 -0.411491 65.4801 -3.46403 -2.01264 28.7423 0.390001 -6.05613 0.0803694 7.11592 -90.0253 12.6493 0.147657 -0.0678439 0.978394 0.144519 -0.074285 -21.5568 0.161208 -0.0203296 -1.54418 0.161214 -0.0203354 92.7323 -46.5459 -97.2785 30.1966 -9.79224 0.158811 -3.7913 -26.4643 -39.9915 -5.71372 -0.917607 6.41291 -95.9362 -49.1614 69.6682 -22.4743 18.1921 -1.35067 0.880903 13.2481 -29.5631 11.5235 1.07921 5.20635 12.0685 2.3972 0.868532 -6.40772 2.13373 2.04368 
-46.9789 96.8796 39.3014 -111.249 -82.9319 -110.988 -169.792 3.64009 93.3617 -13.8649 4.70467 -2.80328 64.4517 1.56515 1.33796 29.5952 0.798658 -1.75207 172.393 -0.347278 87.933 -7.60884 -10.1693 -0.471067 66.3401 -3.79336 -2.18502 28.4461 0.421221 -6.50818 0.0719724 7.11437 -90.0282 12.6449 0.129552 -0.0714873 0.973958 0.126276 -0.0771234 -21.5612 0.145044 -0.0292478 -1.5486 0.145043 -0.0292517 92.7606 -46.634 -97.2158 29.9742 -9.8043 0.00811447 -3.47269 -26.4726 -39.7933 -5.83959 -0.92278 6.36806 -96.0302 -49.2492 69.5565 -22.4839 18.0921 -1.41007 0.925225 13.3877 -29.4628 11.8403 1.11589 5.28465 11.8633 2.35864 1.10718 -6.17132 2.05481 1.68481 
-46.9792 96.8046 39.3064 -111.801 -82.7801 -111.587 -169.8 3.76041 93.3119 -14.3286 5.0296 -2.8296 64.8756 1.8741 2.42855 28.5764 0.0791708 -2.35691 172.265 -0.441588 87.8115 -7.74413 -10.7149 -0.444453 67.0141 -4.0859 -2.34188 27.9355 0.45046 -6.86556 0.0836115 7.13117 -90.0274 12.6116 0.153055 -0.0727037 0.940633 0.149704 -0.0793804 -21.5946 0.167818 -0.0233429 -1.58194 0.167828 -0.0233439 92.68 -46.5815 -97.3553 30.1056 -9.67619 0.146458 -4.12781 -26.2277 -39.927 -5.4033 -0.892285 6.37533 -96.0845 -49.3813 69.5181 -22.3632 18.1698 -1.40275 0.862849 13.2524 -29.6012 12.0756 1.15557 5.43707 11.8349 2.26724 1.0839 -6.06884 1.97284 1.60347 
-47.0036 96.7461 39.3372 -111.641 -82.9789 -111.477 -169.802 4.0055 93.3004 -14.6735 5.10703 -2.86253 65.1387 1.95923 2.29282 28.8015 0.2754 -2.62076 172.335 -0.453838 87.8302 -7.71746 -10.522 -0.493076 67.5192 -4.2714 -2.42906 27.8114 0.456598 -6.93981 0.0693559 7.12726 -90.028 12.6205 0.124381 -0.07052 0.949576 0.121168 -0.0759243 -21.5856 0.139827 -0.0328712 -1.57296 0.139832 -0.0328768 92.7459 -46.5053 -97.2646 30.0679 -9.77501 -0.0322456 -3.34632 -26.0173 -39.5902 -6.08708 -0.935715 6.35401 -96.1471 -49.3356 69.411 -22.4371 18.1195 -1.40824 0.947547 13.2774 -29.71 12.0312 1.15994 5.50175 11.9079 2.33261 0.911183 -6.23294 2.06879 1.80426 
